PathFileType	4	(X/Y/Z)	/Users/itak/Documents/Research/Walk-IL/dataset/trc/00325_00011.trc
DataRate	CameraRate	NumFrames	NumMarkers	Units	OrigDataRate	OrigDataStartFrame	OrigNumFrames
100.000000	100.000000	4	54	mm	100.000000	54	433
Frame#	Time	RPSI			LPSI			L3			STRN			T10			C7			CLAV			RBAK			LBAK			LSHO			LUPA			LAEL			LAOL			LWPS			LFRA			LIFD			LHPS			LHTS			RSHO			RUPA			RAEL			RAOL			RWTS			RWPS			RFRA			RIFD			RHTS			RHPS			RBHD			LFHD			RFHD			LBHD			LHIP			RHIP			RASI			LASI			LKNE			LTHI			LANK			LTIP			LTOE			LMT1			LMT5			LHEE			RKNE			RANK			RTIP			RTOE			RMT1			RMT5			RHEE			LWTS			RTHI			*53			
		X1	Y1	Z1	X2	Y2	Z2	X3	Y3	Z3	X4	Y4	Z4	X5	Y5	Z5	X6	Y6	Z6	X7	Y7	Z7	X8	Y8	Z8	X9	Y9	Z9	X10	Y10	Z10	X11	Y11	Z11	X12	Y12	Z12	X13	Y13	Z13	X14	Y14	Z14	X15	Y15	Z15	X16	Y16	Z16	X17	Y17	Z17	X18	Y18	Z18	X19	Y19	Z19	X20	Y20	Z20	X21	Y21	Z21	X22	Y22	Z22	X23	Y23	Z23	X24	Y24	Z24	X25	Y25	Z25	X26	Y26	Z26	X27	Y27	Z27	X28	Y28	Z28	X29	Y29	Z29	X30	Y30	Z30	X31	Y31	Z31	X32	Y32	Z32	X33	Y33	Z33	X34	Y34	Z34	X35	Y35	Z35	X36	Y36	Z36	X37	Y37	Z37	X38	Y38	Z38	X39	Y39	Z39	X40	Y40	Z40	X41	Y41	Z41	X42	Y42	Z42	X43	Y43	Z43	X44	Y44	Z44	X45	Y45	Z45	X46	Y46	Z46	X47	Y47	Z47	X48	Y48	Z48	X49	Y49	Z49	X50	Y50	Z50	X51	Y51	Z51	X52	Y52	Z52	X53	Y53	Z53	X54	Y54	Z54	

55	0.54	-1444.538818359375	986.5933227539062	79.45806884765625	-1438.391479492188	987.7962646484375	-48.99663925170898	-1442.114501953125	1036.193969726562	19.24477195739746	-1223.7314453125	1221.190185546875	16.55088043212891	-1461.846069335938	1155.029052734375	7.307596683502197	-1419.824951171875	1403.353637695312	-11.38475227355957	-1264.277709960938	1347.109619140625	7.846458435058594	-1471.156494140625	1265.751586914062	57.13267517089844	-1421.731323242188	1363.68994140625	-113.9788665771484	-1331.21630859375	1379.906982421875	-163.2588806152344	-1337.927856445312	1257.302734375	-228.3773803710938	-1311.4033203125	1052.6328125	-227.4894714355469	-1383.277587890625	1039.969848632812	-183.742431640625	-1250.1806640625	799.5781860351562	-216.3277130126953	-1293.046264648438	948.3994140625	-226.3696441650391	-1195.748657226562	666.1267700195312	-150.9738006591797	-1251.530151367188	729.2360229492188	-208.0279846191406	-1199.071166992188	741.066650390625	-165.0562438964844	-1374.302856445312	1394.375	157.5928497314453	-1385.634643554688	1329.248657226562	221.8145904541016	-1364.242065429688	1060.597412109375	255.1808776855469	-1411.533325195312	1053.281005859375	173.2386016845703	-1254.179077148438	834.6780395507812	193.7604675292969	-1282.304809570312	817.3909912109375	262.2094116210938	-1335.921508789062	993.3170776367188	259.6342163085938	-1235.534912109375	662.469970703125	196.9071502685547	-1222.952758789062	734.5737915039062	201.6991271972656	-1266.23828125	734.1511840820312	255.7592315673828	-1408.322875976562	1600.861572265625	57.3626594543457	-1215.348754882812	1632.472900390625	-19.69238090515137	-1248.384155273438	1631.068481445312	75.6290283203125	-1386.007568359375	1593.3447265625	-85.60430908203125	-1354.008422851562	925.2113037109375	-150.5853271484375	-1373.938842773438	927.2861328125	191.2920684814453	-1264.978515625	953.0922241210938	155.5477600097656	-1231.890380859375	946.60986328125	-83.88861846923828	-1341.37451171875	468.3145141601562	-133.6905059814453	-1326.652221679688	605.7572631835938	-141.5879669189453	-1438.995971679688	49.60232925415039	-122.8118667602539	-1390.87744140625	253.3030548095703	-140.9042510986328	-1233.479125976562	44.60636138916016	-60.27949523925781	-1303.171997070312	34.5888786315918	-20.8498649597168	-1312.469604492188	45.19620895385742	-134.1694641113281	-1474.53076171875	44.19481658935547	-55.3055419921875	-1377.6875	463.0782470703125	168.037109375	-1443.29248046875	54.66740798950195	133.7970581054688	-1376.754028320312	344.5645446777344	156.8016052246094	-1249.831787109375	44.31912231445312	83.51123046875	-1305.355712890625	41.55074310302734	40.94813537597656	-1340.318359375	43.58390808105469	152.7483062744141	-1492.913696289062	53.46934127807617	85.53647613525391	-1222.382568359375	813.4596557617188	-154.0322113037109	-1320.515625	716.7288818359375	194.4855041503906	nan	nan	nan	
56	0.55	-1444.20849609375	986.5991821289062	79.47830200195312	-1438.03076171875	987.791259765625	-49.06643676757812	-1441.901245117188	1036.224365234375	19.2733097076416	-1223.405029296875	1221.111083984375	16.53619384765625	-1461.461791992188	1155.003173828125	7.275017261505127	-1419.632690429688	1403.419067382812	-11.35338878631592	-1263.987548828125	1347.069702148438	7.861746788024902	-1470.704467773438	1265.703491210938	57.17589569091797	-1421.396728515625	1363.645141601562	-113.9320755004883	-1330.947143554688	1379.859985351562	-163.2420349121094	-1337.721923828125	1257.265747070312	-228.3768157958984	-1311.154296875	1052.597534179688	-227.4671478271484	-1382.990478515625	1039.94482421875	-183.6553344726562	-1250.170776367188	799.5021362304688	-216.4566955566406	-1292.909912109375	948.3579711914062	-226.4001617431641	-1195.71240234375	666.0985717773438	-151.1825103759766	-1251.489013671875	729.1349487304688	-208.1631622314453	-1198.9853515625	740.9241333007812	-165.1426239013672	-1373.954467773438	1394.358154296875	157.5985412597656	-1385.305053710938	1329.242797851562	221.8273315429688	-1363.831909179688	1060.594970703125	255.1954956054688	-1411.167602539062	1053.269897460938	173.3948669433594	-1253.829467773438	834.6997680664062	193.6602630615234	-1281.79931640625	817.4005126953125	262.2063598632812	-1335.536987304688	993.3218383789062	259.6573486328125	-1234.92578125	662.5941162109375	196.8882446289062	-1222.3271484375	734.682373046875	201.5005798339844	-1265.678833007812	734.2007446289062	255.6671295166016	-1408.0654296875	1600.912841796875	57.38186645507812	-1215.0947265625	1632.491333007812	-19.70623016357422	-1248.068237304688	1630.995483398438	75.63726043701172	-1385.666015625	1593.329833984375	-85.511474609375	-1353.762084960938	925.1906127929688	-150.5955963134766	-1373.567138671875	927.2320556640625	191.3752593994141	-1264.674682617188	953.0424194335938	155.6194610595703	-1231.615356445312	946.549072265625	-83.92294311523438	-1341.251831054688	468.2958374023438	-133.6545562744141	-1326.50732421875	605.7442016601562	-141.5783996582031	-1438.998413085938	49.60343551635742	-122.8135833740234	-1390.821411132812	253.2917022705078	-140.8964080810547	-1233.4775390625	44.59680557250977	-60.27781677246094	-1303.19482421875	34.57534408569336	-20.83126449584961	-1312.468383789062	45.19460296630859	-134.1677856445312	-1474.532348632812	44.197998046875	-55.30569076538086	-1377.5380859375	463.0504760742188	168.0518341064453	-1443.286987304688	54.66823959350586	133.7965850830078	-1376.643798828125	344.5195922851562	156.7855224609375	-1249.828247070312	44.31814575195312	83.51388549804688	-1305.355346679688	41.54827117919922	40.9482536315918	-1340.32275390625	43.58053588867188	152.75732421875	-1492.916259765625	53.48413467407227	85.52972412109375	-1222.278076171875	813.3900756835938	-154.1884765625	-1320.145629882812	716.600830078125	194.4929504394531	nan	nan	nan	
57	0.5600000000000001	-1443.843994140625	986.5987548828125	79.50988006591797	-1437.659301757812	987.7750244140625	-49.08916854858398	-1441.654541015625	1036.232543945312	19.30563926696777	-1223.006591796875	1221.030395507812	16.54347038269043	-1461.087158203125	1154.977661132812	7.265081405639648	-1419.415161132812	1403.484497070312	-11.315185546875	-1263.680908203125	1347.025756835938	7.863330841064453	-1470.233032226562	1265.650634765625	57.28838348388672	-1421.05859375	1363.602783203125	-113.8833847045898	-1330.649169921875	1379.8203125	-163.2112884521484	-1337.502563476562	1257.232666015625	-228.3732299804688	-1310.913452148438	1052.569213867188	-227.4589080810547	-1382.677856445312	1039.924682617188	-183.5690612792969	-1250.16943359375	799.4339599609375	-216.6195373535156	-1292.757568359375	948.3236083984375	-226.4421539306641	-1195.650268554688	666.0784912109375	-151.4286956787109	-1251.428833007812	729.0449829101562	-208.3230743408203	-1198.896728515625	740.7646484375	-165.2858581542969	-1373.595703125	1394.344970703125	157.6075592041016	-1384.9736328125	1329.241821289062	221.8491058349609	-1363.415283203125	1060.579956054688	255.2180786132812	-1410.8251953125	1053.258666992188	173.5453338623047	-1253.52001953125	834.7196655273438	193.5843658447266	-1281.333618164062	817.4251098632812	262.2280578613281	-1335.1435546875	993.3235473632812	259.6895751953125	-1234.244873046875	662.7145385742188	196.930419921875	-1221.763427734375	734.7539672851562	201.3960418701172	-1265.138549804688	734.254638671875	255.6087799072266	-1407.7607421875	1600.944580078125	57.42116928100586	-1214.830932617188	1632.521728515625	-19.70741844177246	-1247.759643554688	1630.927490234375	75.65513610839844	-1385.325073242188	1593.308959960938	-85.43014526367188	-1353.492919921875	925.1651000976562	-150.5931701660156	-1373.18408203125	927.154052734375	191.4790802001953	-1264.382446289062	952.9920654296875	155.6919250488281	-1231.319213867188	946.4990844726562	-83.94728088378906	-1341.122802734375	468.274658203125	-133.6190643310547	-1326.367553710938	605.731201171875	-141.5723114013672	-1439.002807617188	49.60492324829102	-122.815185546875	-1390.760986328125	253.2779541015625	-140.8878173828125	-1233.477905273438	44.59066390991211	-60.27730941772461	-1303.221557617188	34.56477355957031	-20.8117561340332	-1312.467041015625	45.19368362426758	-134.1659851074219	-1474.533569335938	44.19932556152344	-55.30495071411133	-1377.373168945312	463.0184631347656	168.0662689208984	-1443.279296875	54.67006301879883	133.7940826416016	-1376.533203125	344.4878540039062	156.7695465087891	-1249.826904296875	44.31739044189453	83.51713562011719	-1305.340087890625	41.53719711303711	40.95167541503906	-1340.32421875	43.58092498779297	152.7612762451172	-1492.919189453125	53.49534225463867	85.521240234375	-1222.159912109375	813.3112182617188	-154.3674621582031	-1319.76416015625	716.448974609375	194.5211029052734	nan	nan	nan	
58	0.5700000000000001	-1443.456909179688	986.5979614257812	79.55638885498047	-1437.2783203125	987.751953125	-49.05622100830078	-1441.358642578125	1036.213500976562	19.33880233764648	-1222.54736328125	1220.944702148438	16.57905578613281	-1460.728271484375	1154.953979492188	7.283325672149658	-1419.156860351562	1403.542846679688	-11.26224613189697	-1263.3525390625	1346.976318359375	7.854290008544922	-1469.760986328125	1265.60205078125	57.4604606628418	-1420.719970703125	1363.564208984375	-113.8332824707031	-1330.319458007812	1379.787841796875	-163.1650695800781	-1337.262573242188	1257.20361328125	-228.3645629882812	-1310.681762695312	1052.547973632812	-227.4650573730469	-1382.34326171875	1039.910522460938	-183.4861297607422	-1250.176025390625	799.3739013671875	-216.8153076171875	-1292.58447265625	948.295654296875	-226.4945220947266	-1195.566284179688	666.064697265625	-151.7142333984375	-1251.34765625	728.9647827148438	-208.5048217773438	-1198.815063476562	740.5911254882812	-165.4815368652344	-1373.233642578125	1394.331298828125	157.6259765625	-1384.63818359375	1329.241577148438	221.8856353759766	-1362.994140625	1060.552490234375	255.2532806396484	-1410.509155273438	1053.243041992188	173.6864166259766	-1253.232666015625	834.7360229492188	193.5324096679688	-1280.901733398438	817.46044921875	262.2756958007812	-1334.738403320312	993.3218994140625	259.7413635253906	-1233.503662109375	662.8434448242188	197.0196990966797	-1221.271118164062	734.7785034179688	201.3850860595703	-1264.623657226562	734.30712890625	255.5940704345703	-1407.404052734375	1600.94921875	57.48917388916016	-1214.555908203125	1632.565185546875	-19.69131278991699	-1247.450561523438	1630.868774414062	75.68088531494141	-1384.997924804688	1593.282592773438	-85.36350250244141	-1353.188598632812	925.1328125	-150.5695953369141	-1372.801025390625	927.0614624023438	191.6027526855469	-1264.098022460938	952.9486083984375	155.7590789794922	-1230.988647460938	946.459716796875	-83.95508575439453	-1340.98583984375	468.2499694824219	-133.5845336914062	-1326.229736328125	605.7175903320312	-141.5682983398438	-1439.008422851562	49.60641479492188	-122.8179244995117	-1390.696044921875	253.2622528076172	-140.8791656494141	-1233.479125976562	44.58773040771484	-60.27744293212891	-1303.2529296875	34.55617523193359	-20.79012870788574	-1312.46533203125	45.19320297241211	-134.1640014648438	-1474.534301757812	44.19878005981445	-55.30331039428711	-1377.189086914062	462.9829406738281	168.0774993896484	-1443.26904296875	54.67336654663086	133.7893676757812	-1376.415283203125	344.4667663574219	156.7536315917969	-1249.826904296875	44.31645202636719	83.52091979980469	-1305.309936523438	41.51718139648438	40.95868301391602	-1340.322143554688	43.58480072021484	152.7595672607422	-1492.922119140625	53.50253677368164	85.51145172119141	-1222.032470703125	813.2171630859375	-154.5647583007812	-1319.3828125	716.2828979492188	194.5694427490234	nan	nan	nan	
